<mxfile host="app.diagrams.net" modified="2024-01-20T09:48:17.658Z" agent="Mozilla/5.0 (Windows NT 10.0; Win64; x64) AppleWebKit/537.36 (KHTML, like Gecko) Chrome/121.0.0.0 Safari/537.36 Edg/121.0.0.0/8mqEpSuL-47" version="22.1.17" etag="5aNwlafv9jNpRyQWRzA9" type="github">
  <diagram name="Page-1" id="swKhH9ZGQnAaxDftz4m1">
    <mxGraphModel>
      <root>
        <mxCell id="0" />
        <mxCell id="1" parent="0" />
      </root>
    </mxGraphModel>
  </diagram>
</mxfile>
